<?xml version="1.0" encoding="utf-8"?>
<!-- Generator: Adobe Illustrator 19.0.0, SVG Export Plug-In . SVG Version: 6.00 Build 0)  -->
<svg version="1.1" id="Layer_1" xmlns="http://www.w3.org/2000/svg" xmlns:xlink="http://www.w3.org/1999/xlink" x="0px" y="0px"
	 viewBox="0 0 20 20" style="enable-background:new 0 0 20 20;" xml:space="preserve">
<path id="f" d="M30.6,18.7v-7.8h2.7l0.4-3h-3.1V5.9c0-0.9,0.3-1.5,1.5-1.5l1.7,0V1.7c-0.3,0-1.3-0.1-2.4-0.1c-2.4,0-4,1.4-4,4v2.2
	h-2.7v3h2.7v7.8H30.6z"/>
<g id="XMLID_2_">
	<path id="XMLID_3_" d="M52.9,1.3H39.1c-1,0-1.7,0.8-1.7,1.7v13.9c0,1,0.8,1.7,1.7,1.7h13.9c1,0,1.7-0.8,1.7-1.7V3.1
		C54.7,2.1,53.9,1.3,52.9,1.3L52.9,1.3z M42.5,16.1h-2.6V8.3h2.6V16.1z M41.2,6.8c-0.9,0-1.6-0.7-1.6-1.6c0-0.9,0.7-1.6,1.6-1.6
		c0.9,0,1.6,0.7,1.6,1.6C42.8,6.1,42.1,6.8,41.2,6.8L41.2,6.8z M52.1,16.1h-2.6v-4.6c0-0.7-0.6-1.3-1.3-1.3c-0.7,0-1.3,0.6-1.3,1.3
		v4.6h-2.6V8.3h2.6v1c0.4-0.7,1.4-1.2,2.2-1.2c1.6,0,3,1.4,3,3V16.1z M52.1,16.1"/>
</g>
<g id="XMLID_25_">
	<path id="XMLID_47_" d="M7.5,15.2c-0.1,0-0.2,0.1-0.2,0.2c0,0.1,0.1,0.1,0.2,0.1c0.1,0,0.2-0.1,0.2-0.2C7.6,15.2,7.6,15.2,7.5,15.2
		L7.5,15.2z M7.5,15.2"/>
	<path id="XMLID_44_" d="M6.8,15.3c-0.1,0-0.2,0-0.2,0.1c0,0.1,0.1,0.1,0.2,0.1c0.1,0,0.2,0,0.2-0.1C7,15.3,6.9,15.3,6.8,15.3
		L6.8,15.3z M6.8,15.3"/>
	<path id="XMLID_41_" d="M6,15.2c0,0.1,0,0.1,0.1,0.2c0.1,0,0.2,0,0.2-0.1c0-0.1,0-0.1-0.1-0.2C6.1,15.1,6,15.2,6,15.2L6,15.2z
		 M6,15.2"/>
	<path id="XMLID_38_" d="M17.4,2.4c-0.6-0.6-1.4-0.9-2.3-0.9H4.5c-0.9,0-1.6,0.3-2.3,0.9C1.6,3,1.3,3.8,1.3,4.7v10.7
		c0,0.9,0.3,1.6,0.9,2.3c0.6,0.6,1.4,0.9,2.3,0.9H7c0.2,0,0.3,0,0.4,0c0.1,0,0.2-0.1,0.2-0.1c0.1-0.1,0.1-0.2,0.1-0.4
		c0,0,0-0.3,0-0.8c0-0.5,0-0.9,0-1.1l-0.3,0c-0.2,0-0.4,0-0.6,0c-0.2,0-0.5,0-0.8-0.1c-0.3,0-0.5-0.2-0.7-0.3
		c-0.2-0.2-0.4-0.4-0.5-0.7l-0.1-0.3c-0.1-0.2-0.2-0.4-0.4-0.6c-0.2-0.2-0.3-0.3-0.5-0.4l-0.1-0.1c-0.1,0-0.1-0.1-0.1-0.1
		c0-0.1-0.1-0.1-0.1-0.2c0-0.1,0-0.1,0.1-0.1c0.1,0,0.2,0,0.3,0l0.2,0c0.1,0,0.3,0.1,0.5,0.3c0.2,0.1,0.4,0.3,0.5,0.6
		c0.2,0.3,0.4,0.5,0.6,0.7c0.2,0.2,0.5,0.2,0.7,0.2c0.2,0,0.5,0,0.6-0.1c0.2,0,0.3-0.1,0.5-0.2C7.8,14.4,8,14,8.3,13.8
		c-0.4,0-0.8-0.1-1.1-0.2c-0.3-0.1-0.7-0.2-1-0.4c-0.4-0.2-0.7-0.4-0.9-0.7c-0.2-0.3-0.4-0.7-0.6-1.2c-0.2-0.5-0.2-1-0.2-1.7
		c0-0.9,0.3-1.7,0.9-2.3C5,6.6,5,5.8,5.3,5c0.2-0.1,0.5,0,1,0.1C6.7,5.3,7,5.5,7.2,5.6c0.2,0.1,0.4,0.2,0.5,0.3
		c0.7-0.2,1.4-0.3,2.1-0.3c0.7,0,1.4,0.1,2.1,0.3l0.4-0.3c0.3-0.2,0.6-0.3,1-0.5C13.8,5,14.1,4.9,14.3,5c0.3,0.8,0.4,1.6,0.1,2.3
		c0.6,0.6,0.9,1.4,0.9,2.3c0,0.6-0.1,1.2-0.2,1.7c-0.2,0.5-0.3,0.9-0.6,1.2c-0.2,0.3-0.5,0.5-0.9,0.7c-0.4,0.2-0.7,0.3-1,0.4
		c-0.3,0.1-0.7,0.2-1.1,0.2c0.4,0.3,0.6,0.9,0.6,1.6V18c0,0.1,0,0.2,0.1,0.3c0,0.1,0.1,0.1,0.2,0.2c0.1,0,0.2,0,0.2,0.1
		c0.1,0,0.2,0,0.3,0h2.5c0.9,0,1.6-0.3,2.3-0.9c0.6-0.6,0.9-1.4,0.9-2.3V4.7C18.4,3.8,18.1,3,17.4,2.4L17.4,2.4z M17.4,2.4"/>
	<path id="XMLID_35_" d="M4.7,13.9c-0.1,0,0,0.1,0,0.2c0.1,0.1,0.1,0.1,0.2,0c0.1,0,0-0.1,0-0.2C4.8,13.9,4.7,13.8,4.7,13.9
		L4.7,13.9z M4.7,13.9"/>
	<path id="XMLID_32_" d="M4.3,13.6c0,0.1,0,0.1,0.1,0.1c0.1,0,0.1,0,0.1,0c0-0.1,0-0.1-0.1-0.1C4.4,13.6,4.3,13.6,4.3,13.6L4.3,13.6
		z M4.3,13.6"/>
	<path id="XMLID_29_" d="M5,14.3c-0.1,0-0.1,0.1,0,0.2c0.1,0.1,0.1,0.1,0.2,0.1c0.1-0.1,0.1-0.1,0-0.2C5.2,14.3,5.1,14.3,5,14.3
		L5,14.3z M5,14.3"/>
	<path id="XMLID_26_" d="M5.4,14.8c-0.1,0.1-0.1,0.1,0,0.2c0.1,0.1,0.2,0.1,0.2,0c0.1-0.1,0-0.1,0-0.2C5.5,14.8,5.5,14.8,5.4,14.8
		L5.4,14.8z M5.4,14.8"/>
</g>
</svg>
