<?xml version="1.0" encoding="utf-8"?>
<!-- Generator: Adobe Illustrator 19.0.0, SVG Export Plug-In . SVG Version: 6.00 Build 0)  -->
<svg version="1.1" id="Layer_1" xmlns="http://www.w3.org/2000/svg" xmlns:xlink="http://www.w3.org/1999/xlink" x="0px" y="0px"
	 viewBox="0 0 20 20" style="enable-background:new 0 0 20 20;" xml:space="preserve">
<style type="text/css">
	.st0{opacity:0.75;fill:#0523B8;}
	.st1{opacity:0.75;}
	.st2{fill:#0523B8;}
</style>
<path id="f" class="st0" d="M28.1,19.2v-7.8h2.6l0.4-3H28V6.5C28,5.6,28.3,5,29.5,5h1.7V2.3c-0.3,0-1.3-0.1-2.4-0.1
	c-2.4,0-4,1.4-4,4v2.2h-2.7v3h2.7v7.8H28.1z"/>
<g id="XMLID_2_" class="st1">
	<path id="XMLID_3_" class="st2" d="M47.6,1.4H33.7c-1,0-1.7,0.8-1.7,1.7V17c0,1,0.8,1.7,1.7,1.7h13.9c1,0,1.7-0.8,1.7-1.7V3.1
		C49.3,2.2,48.5,1.4,47.6,1.4L47.6,1.4z M37.2,16.1h-2.6V8.3h2.6V16.1z M35.9,6.9c-0.9,0-1.6-0.7-1.6-1.6s0.7-1.6,1.6-1.6
		c0.9,0,1.6,0.7,1.6,1.6C37.4,6.2,36.7,6.9,35.9,6.9L35.9,6.9z M46.7,16.1h-2.6v-4.6c0-0.7-0.6-1.3-1.3-1.3s-1.3,0.6-1.3,1.3v4.6
		h-2.6V8.3h2.6v1c0.4-0.6,1.4-1.1,2.2-1.1c1.6,0,3,1.4,3,3V16.1z"/>
</g>
<g id="XMLID_25_">
	<path id="XMLID_47_" class="st2" d="M7.5,15.1c-0.1,0-0.2,0.1-0.2,0.2c0,0.1,0.1,0.1,0.2,0.1s0.2-0.1,0.2-0.2
		C7.7,15.1,7.6,15.1,7.5,15.1L7.5,15.1z"/>
	<path id="XMLID_44_" class="st2" d="M6.9,15.2c-0.1,0-0.2,0-0.2,0.1s0.1,0.1,0.2,0.1s0.2,0,0.2-0.1C7.1,15.2,7,15.2,6.9,15.2
		L6.9,15.2z"/>
	<path id="XMLID_41_" class="st2" d="M6,15.2c0,0.1,0,0.1,0.1,0.2c0.1,0,0.2,0,0.2-0.1s0-0.1-0.1-0.2C6.1,15.1,6,15.1,6,15.2L6,15.2
		z"/>
	<path id="XMLID_38_" class="st2" d="M17.5,2.3c-0.6-0.6-1.4-0.9-2.3-0.9H4.5c-0.9,0-1.6,0.3-2.3,0.9C1.6,2.9,1.3,3.8,1.3,4.6v10.7
		c0,0.9,0.3,1.6,0.9,2.3c0.6,0.6,1.4,0.9,2.3,0.9H7c0.2,0,0.3,0,0.4,0s0.2-0.1,0.2-0.1c0.1-0.1,0.1-0.2,0.1-0.4c0,0,0-0.3,0-0.8
		s0-0.9,0-1.1H7.4c-0.2,0-0.4,0-0.6,0S6.3,16.1,6,16c-0.3,0-0.5-0.2-0.7-0.3c-0.2-0.2-0.4-0.4-0.5-0.7l-0.1-0.3
		c-0.1-0.2-0.2-0.4-0.4-0.6c-0.2-0.2-0.3-0.3-0.5-0.4l-0.1-0.1c-0.1,0-0.1-0.1-0.1-0.1c0-0.1-0.1-0.1-0.1-0.2c0-0.1,0-0.1,0.1-0.1
		s0.2,0,0.3,0h0.2c0.1,0,0.3,0.1,0.5,0.3c0.2,0.1,0.4,0.3,0.5,0.6c0.2,0.3,0.4,0.5,0.6,0.7S6.2,15,6.4,15s0.5,0,0.6-0.1
		c0.2,0,0.3-0.1,0.5-0.2c0.1-0.5,0.2-0.9,0.5-1.1c-0.4,0-0.8-0.1-1.1-0.2c-0.3-0.1-0.7-0.2-1-0.4c-0.4-0.2-0.7-0.4-0.9-0.7
		c-0.2-0.3-0.4-0.7-0.6-1.2s-0.2-1-0.2-1.7c0-0.9,0.3-1.7,0.9-2.3C4.8,6.4,4.9,5.7,5.2,4.8c0.2-0.1,0.5,0,1,0.1
		c0.4,0.2,0.7,0.3,0.9,0.4c0.2,0.1,0.4,0.2,0.5,0.3C8.3,5.4,9,5.3,9.7,5.3c0.7,0,1.4,0.1,2.1,0.3l0.4-0.3c0.3-0.2,0.6-0.3,1-0.5
		c0.7,0.1,1,0.1,1.2,0.1c0.3,0.8,0.4,1.6,0.1,2.3c0.6,0.6,0.9,1.4,0.9,2.3c0,0.6-0.1,1.2-0.2,1.7c-0.2,0.5-0.3,0.9-0.6,1.2
		c-0.2,0.3-0.5,0.5-0.9,0.7s-0.7,0.3-1,0.4c-0.3,0.1-0.7,0.2-1.1,0.2c0.4,0.3,0.6,0.9,0.6,1.6v2.6c0,0.1,0,0.2,0.1,0.3
		c0,0.1,0.1,0.1,0.2,0.2c0.1,0,0.2,0,0.2,0.1c0.1,0,0.2,0,0.3,0h2.5c0.9,0,1.6-0.3,2.3-0.9c0.6-0.6,0.9-1.4,0.9-2.3V4.6
		C18.4,3.7,18.1,3,17.5,2.3L17.5,2.3z"/>
	<path id="XMLID_35_" class="st2" d="M4.7,13.8c-0.1,0,0,0.1,0,0.2c0.1,0.1,0.1,0.1,0.2,0c0.1,0,0-0.1,0-0.2
		C4.8,13.8,4.8,13.8,4.7,13.8L4.7,13.8z"/>
	<path id="XMLID_32_" class="st2" d="M4.4,13.6c0,0.1,0,0.1,0.1,0.1s0.1,0,0.1,0c0-0.1,0-0.1-0.1-0.1S4.4,13.6,4.4,13.6L4.4,13.6z"
		/>
	<path id="XMLID_29_" class="st2" d="M5.1,14.3c-0.1,0-0.1,0.1,0,0.2c0.1,0.1,0.1,0.1,0.2,0.1c0.1-0.1,0.1-0.1,0-0.2
		C5.2,14.2,5.2,14.2,5.1,14.3L5.1,14.3z"/>
	<path id="XMLID_26_" class="st2" d="M5.5,14.8c-0.1,0.1-0.1,0.1,0,0.2c0.1,0.1,0.2,0.1,0.2,0c0.1-0.1,0-0.1,0-0.2
		C5.6,14.8,5.5,14.8,5.5,14.8L5.5,14.8z"/>
</g>
</svg>
