<?xml version="1.0" encoding="utf-8"?>
<!-- Generator: Adobe Illustrator 19.2.1, SVG Export Plug-In . SVG Version: 6.00 Build 0)  -->
<svg version="1.1" id="Layer_1" xmlns="http://www.w3.org/2000/svg" xmlns:xlink="http://www.w3.org/1999/xlink" x="0px" y="0px"
	 viewBox="0 0 40 40" style="enable-background:new 0 0 40 40;" xml:space="preserve">
<style type="text/css">
	.st0{fill:#FFFFFF;}
</style>
<path class="st0" d="M20,0C9,0,0,9,0,20c0,11,9,20,20,20c11,0,20-9,20-20C40,9,31,0,20,0z M29.1,18.2c-0.2,3.2-1.8,5.2-4.9,5.9
	c-0.5,0.1-0.9,0.2-1.5,0.3c0.9,1,0.9,2.1,0.9,3.3c0,1,0,2.1,0,3.1c0,0.7-1,1.4-3.6,1.4c-2.6,0-3.4-0.5-3.4-1.2c0-0.9,0-1.8,0-2.6
	c-0.7,0-1.3,0-2,0c-1.3-0.1-2.3-0.7-2.8-2c-0.3-0.8-0.8-1.5-1.6-2C10,24.3,9.9,24,9.7,23.8c0.2-0.1,0.5-0.1,0.7-0.2c0,0,0.1,0,0.1,0
	c0.9,0.2,1.5,0.7,2,1.5c0.9,1.4,2.2,1.9,3.8,1.3c0.1-0.1,0.3-0.1,0.3-0.3c0.2-0.6,0.5-1.2,0.7-1.8c-0.3,0-0.6-0.1-0.8-0.1
	c-1.6-0.3-3-0.9-4.1-2.2c-1.4-1.7-2.1-6-0.1-8.2c0.1-0.1,0.1-0.3,0.1-0.5c-0.3-0.9-0.2-1.9,0-2.8c0.2-0.7,0.3-0.8,1-0.6
	c1,0.2,1.9,0.7,2.7,1.2c0.2,0.1,0.5,0.2,0.7,0.1c1.8-0.4,3.7-0.5,5.6-0.1c0.8,0.2,1.5,0.1,2.2-0.4c0.7-0.5,1.6-0.8,2.5-0.9
	c0.3,0,0.4,0.1,0.5,0.3c0.3,1.1,0.4,2.1,0.1,3.2c0,0.1,0,0.3,0,0.4C28.9,15.1,29.2,16.6,29.1,18.2z"/>
</svg>
