<?xml version="1.0" encoding="utf-8"?>
<!-- Generator: Adobe Illustrator 19.2.1, SVG Export Plug-In . SVG Version: 6.00 Build 0)  -->
<svg version="1.1" id="Layer_1" xmlns="http://www.w3.org/2000/svg" xmlns:xlink="http://www.w3.org/1999/xlink" x="0px" y="0px"
	 viewBox="0 0 40 40" style="enable-background:new 0 0 40 40;" xml:space="preserve">
<style type="text/css">
	.st0{fill:#FFFFFF;}
</style>
<path class="st0" d="M20,0C9,0,0,9,0,20c0,11,9,20,20,20s20-9,20-20C40,9,31,0,20,0z M25,20.7h-3.3c0,5.2,0,11.6,0,11.6h-4.8
	c0,0,0-6.3,0-11.6h-2.3v-4.1h2.3V14c0-1.9,0.9-4.9,4.9-4.9l3.6,0v4c0,0-2.2,0-2.6,0c-0.4,0-1,0.2-1,1.1v2.4h3.7L25,20.7z"/>
</svg>
