<?xml version="1.0" encoding="utf-8"?>
<!-- Generator: Adobe Illustrator 19.0.0, SVG Export Plug-In . SVG Version: 6.00 Build 0)  -->
<svg version="1.1" id="Layer_1" xmlns="http://www.w3.org/2000/svg" xmlns:xlink="http://www.w3.org/1999/xlink" x="0px" y="0px"
	 viewBox="0 0 20 20" style="enable-background:new 0 0 20 20;" xml:space="preserve">
<style type="text/css">
	.st0{opacity:0.75;fill:#0523B8;}
	.st1{fill:#0523B8;}
</style>
<path id="f" class="st0" d="M28.1,19.2v-7.8h2.6l0.4-3H28V6.5C28,5.6,28.3,5,29.5,5h1.7V2.3c-0.3,0-1.3-0.1-2.4-0.1
	c-2.4,0-4,1.4-4,4v2.2h-2.7v3h2.7v7.8H28.1z"/>
<g id="XMLID_2_">
	<path id="XMLID_3_" class="st1" d="M17,1.4H3.1c-1,0-1.7,0.8-1.7,1.7V17c0,1,0.8,1.7,1.7,1.7h13.9c1,0,1.7-0.8,1.7-1.7V3.1
		C18.7,2.2,17.9,1.4,17,1.4L17,1.4z M6.6,16.1H4V8.3h2.6V16.1z M5.3,6.9c-0.9,0-1.6-0.7-1.6-1.6s0.7-1.6,1.6-1.6
		c0.9,0,1.6,0.7,1.6,1.6C6.8,6.2,6.1,6.9,5.3,6.9L5.3,6.9z M16.1,16.1h-2.6v-4.6c0-0.7-0.6-1.3-1.3-1.3s-1.3,0.6-1.3,1.3v4.6H8.3
		V8.3h2.6v1c0.4-0.6,1.4-1.1,2.2-1.1c1.6,0,3,1.4,3,3V16.1z"/>
</g>
<g id="XMLID_25_">
	<path id="XMLID_47_" class="st1" d="M-20.2,15.8c-0.1,0-0.2,0.1-0.2,0.2s0.1,0.1,0.2,0.1S-20,16-20,15.9
		C-20,15.8-20.1,15.8-20.2,15.8L-20.2,15.8z"/>
	<path id="XMLID_44_" class="st1" d="M-20.8,15.9c-0.1,0-0.2,0-0.2,0.1s0.1,0.1,0.2,0.1s0.2,0,0.2-0.1
		C-20.6,15.9-20.7,15.9-20.8,15.9L-20.8,15.9z"/>
	<path id="XMLID_41_" class="st1" d="M-21.7,15.9c0,0.1,0,0.1,0.1,0.2c0.1,0,0.2,0,0.2-0.1c0-0.1,0-0.1-0.1-0.2
		C-21.6,15.8-21.7,15.8-21.7,15.9L-21.7,15.9z"/>
	<path id="XMLID_38_" class="st1" d="M-10.2,3c-0.6-0.6-1.4-0.9-2.3-0.9h-10.7c-0.9,0-1.6,0.3-2.3,0.9c-0.6,0.6-0.9,1.4-0.9,2.3V16
		c0,0.9,0.3,1.6,0.9,2.3c0.6,0.6,1.4,0.9,2.3,0.9h2.5c0.2,0,0.3,0,0.4,0s0.2-0.1,0.2-0.1C-20,19-20,18.9-20,18.7c0,0,0-0.3,0-0.8
		s0-0.9,0-1.1h-0.3c-0.2,0-0.4,0-0.6,0s-0.5,0-0.8-0.1c-0.3,0-0.5-0.2-0.7-0.3c-0.2-0.2-0.4-0.4-0.5-0.7l-0.1-0.3
		c-0.1-0.2-0.2-0.4-0.4-0.6c-0.2-0.2-0.3-0.3-0.5-0.4l-0.1-0.1c-0.1,0-0.1-0.1-0.1-0.1c0-0.1-0.1-0.1-0.1-0.2c0-0.1,0-0.1,0.1-0.1
		s0.2,0,0.3,0h0.2c0.1,0,0.3,0.1,0.5,0.3c0.2,0.1,0.4,0.3,0.5,0.6c0.2,0.3,0.4,0.5,0.6,0.7s0.5,0.2,0.7,0.2s0.5,0,0.6-0.1
		c0.2,0,0.3-0.1,0.5-0.2c0.1-0.5,0.2-0.9,0.5-1.1c-0.4,0-0.8-0.1-1.1-0.2c-0.3-0.1-0.7-0.2-1-0.4c-0.4-0.2-0.7-0.4-0.9-0.7
		c-0.2-0.3-0.4-0.7-0.6-1.2s-0.2-1-0.2-1.7c0-0.9,0.3-1.7,0.9-2.3c-0.3-0.7-0.2-1.4,0.1-2.3c0.2-0.1,0.5,0,1,0.1
		c0.4,0.2,0.7,0.3,0.9,0.4c0.2,0.1,0.4,0.2,0.5,0.3C-19.4,6.1-18.7,6-18,6s1.4,0.1,2.1,0.3l0.4-0.3c0.3-0.2,0.6-0.3,1-0.5
		c0.7,0.1,1,0.1,1.2,0.1c0.3,0.8,0.4,1.6,0.1,2.3c0.6,0.6,0.9,1.4,0.9,2.3c0,0.6-0.1,1.2-0.2,1.7c-0.2,0.5-0.3,0.9-0.6,1.2
		c-0.2,0.3-0.5,0.5-0.9,0.7s-0.7,0.3-1,0.4c-0.3,0.1-0.7,0.2-1.1,0.2c0.4,0.3,0.6,0.9,0.6,1.6v2.6c0,0.1,0,0.2,0.1,0.3
		c0,0.1,0.1,0.1,0.2,0.2c0.1,0,0.2,0,0.2,0.1c0.1,0,0.2,0,0.3,0h2.5c0.9,0,1.6-0.3,2.3-0.9C-9.3,17.7-9,16.9-9,16V5.3
		C-9.3,4.4-9.6,3.7-10.2,3L-10.2,3z"/>
	<path id="XMLID_35_" class="st1" d="M-23,14.5c-0.1,0,0,0.1,0,0.2c0.1,0.1,0.1,0.1,0.2,0c0.1,0,0-0.1,0-0.2
		C-22.9,14.5-22.9,14.5-23,14.5L-23,14.5z"/>
	<path id="XMLID_32_" class="st1" d="M-23.3,14.2c0,0.1,0,0.1,0.1,0.1s0.1,0,0.1,0c0-0.1,0-0.1-0.1-0.1S-23.3,14.2-23.3,14.2
		L-23.3,14.2z"/>
	<path id="XMLID_29_" class="st1" d="M-22.6,15c-0.1,0-0.1,0.1,0,0.2c0.1,0.1,0.1,0.1,0.2,0.1c0.1-0.1,0.1-0.1,0-0.2
		C-22.5,14.9-22.5,14.9-22.6,15L-22.6,15z"/>
	<path id="XMLID_26_" class="st1" d="M-22.2,15.5c-0.1,0.1-0.1,0.1,0,0.2c0.1,0.1,0.2,0.1,0.2,0c0.1-0.1,0-0.1,0-0.2
		C-22.1,15.4-22.2,15.4-22.2,15.5L-22.2,15.5z"/>
</g>
</svg>
