<?xml version="1.0" encoding="utf-8"?>
<!-- Generator: Adobe Illustrator 19.0.0, SVG Export Plug-In . SVG Version: 6.00 Build 0)  -->
<svg version="1.1" id="Layer_1" xmlns="http://www.w3.org/2000/svg" xmlns:xlink="http://www.w3.org/1999/xlink" x="0px" y="0px"
	 viewBox="0 0 20 20" style="enable-background:new 0 0 20 20;" xml:space="preserve">
<path id="f" d="M30.6,18.7v-7.8h2.7l0.4-3h-3.1V5.9c0-0.9,0.3-1.5,1.5-1.5l1.7,0V1.7c-0.3,0-1.3-0.1-2.4-0.1c-2.4,0-4,1.4-4,4v2.2
	h-2.7v3h2.7v7.8H30.6z"/>
<g id="XMLID_2_">
	<path id="XMLID_3_" d="M16.9,1.3H3.1c-1,0-1.7,0.8-1.7,1.7v13.9c0,1,0.8,1.7,1.7,1.7h13.9c1,0,1.7-0.8,1.7-1.7V3.1
		C18.7,2.1,17.9,1.3,16.9,1.3L16.9,1.3z M6.5,16.1H3.9V8.3h2.6V16.1z M5.2,6.8c-0.9,0-1.6-0.7-1.6-1.6c0-0.9,0.7-1.6,1.6-1.6
		c0.9,0,1.6,0.7,1.6,1.6C6.8,6.1,6.1,6.8,5.2,6.8L5.2,6.8z M16.1,16.1h-2.6v-4.6c0-0.7-0.6-1.3-1.3-1.3c-0.7,0-1.3,0.6-1.3,1.3v4.6
		H8.3V8.3h2.6v1c0.4-0.7,1.4-1.2,2.2-1.2c1.6,0,3,1.4,3,3V16.1z M16.1,16.1"/>
</g>
<g id="XMLID_25_">
	<path id="XMLID_47_" d="M-16.3,15.2c-0.1,0-0.2,0.1-0.2,0.2c0,0.1,0.1,0.1,0.2,0.1c0.1,0,0.2-0.1,0.2-0.2
		C-16.1,15.2-16.2,15.2-16.3,15.2L-16.3,15.2z M-16.3,15.2"/>
	<path id="XMLID_44_" d="M-16.9,15.3c-0.1,0-0.2,0-0.2,0.1c0,0.1,0.1,0.1,0.2,0.1c0.1,0,0.2,0,0.2-0.1
		C-16.7,15.3-16.8,15.3-16.9,15.3L-16.9,15.3z M-16.9,15.3"/>
	<path id="XMLID_41_" d="M-17.8,15.3c0,0.1,0,0.1,0.1,0.2c0.1,0,0.2,0,0.2-0.1c0-0.1,0-0.1-0.1-0.2C-17.7,15.2-17.8,15.2-17.8,15.3
		L-17.8,15.3z M-17.8,15.3"/>
	<path id="XMLID_38_" d="M-6.3,2.4c-0.6-0.6-1.4-0.9-2.3-0.9h-10.7c-0.9,0-1.6,0.3-2.3,0.9c-0.6,0.6-0.9,1.4-0.9,2.3v10.7
		c0,0.9,0.3,1.6,0.9,2.3c0.6,0.6,1.4,0.9,2.3,0.9h2.5c0.2,0,0.3,0,0.4,0c0.1,0,0.2-0.1,0.2-0.1c0.1-0.1,0.1-0.2,0.1-0.4
		c0,0,0-0.3,0-0.8c0-0.5,0-0.9,0-1.1l-0.3,0c-0.2,0-0.4,0-0.6,0c-0.2,0-0.5,0-0.8-0.1c-0.3,0-0.5-0.2-0.7-0.3
		c-0.2-0.2-0.4-0.4-0.5-0.7l-0.1-0.3c-0.1-0.2-0.2-0.4-0.4-0.6c-0.2-0.2-0.3-0.3-0.5-0.4l-0.1-0.1c-0.1,0-0.1-0.1-0.1-0.1
		c0-0.1-0.1-0.1-0.1-0.2c0-0.1,0-0.1,0.1-0.1c0.1,0,0.2,0,0.3,0l0.2,0c0.1,0,0.3,0.1,0.5,0.3c0.2,0.1,0.4,0.3,0.5,0.6
		c0.2,0.3,0.4,0.5,0.6,0.7c0.2,0.2,0.5,0.2,0.7,0.2c0.2,0,0.5,0,0.6-0.1c0.2,0,0.3-0.1,0.5-0.2c0.1-0.5,0.2-0.9,0.5-1.1
		c-0.4,0-0.8-0.1-1.1-0.2c-0.3-0.1-0.7-0.2-1-0.4c-0.4-0.2-0.7-0.4-0.9-0.7c-0.2-0.3-0.4-0.7-0.6-1.2c-0.2-0.5-0.2-1-0.2-1.7
		c0-0.9,0.3-1.7,0.9-2.3c-0.3-0.7-0.2-1.4,0.1-2.3c0.2-0.1,0.5,0,1,0.1c0.4,0.2,0.7,0.3,0.9,0.4c0.2,0.1,0.4,0.2,0.5,0.3
		c0.7-0.2,1.4-0.3,2.1-0.3c0.7,0,1.4,0.1,2.1,0.3l0.4-0.3c0.3-0.2,0.6-0.3,1-0.5C-9.9,5-9.6,5-9.4,5c0.3,0.8,0.4,1.6,0.1,2.3
		c0.6,0.6,0.9,1.4,0.9,2.3c0,0.6-0.1,1.2-0.2,1.7c-0.2,0.5-0.3,0.9-0.6,1.2c-0.2,0.3-0.5,0.5-0.9,0.7c-0.4,0.2-0.7,0.3-1,0.4
		c-0.3,0.1-0.7,0.2-1.1,0.2c0.4,0.3,0.6,0.9,0.6,1.6V18c0,0.1,0,0.2,0.1,0.3c0,0.1,0.1,0.1,0.2,0.2c0.1,0,0.2,0,0.2,0.1
		c0.1,0,0.2,0,0.3,0h2.5c0.9,0,1.6-0.3,2.3-0.9c0.6-0.6,0.9-1.4,0.9-2.3V4.7C-5.4,3.8-5.7,3.1-6.3,2.4L-6.3,2.4z M-6.3,2.4"/>
	<path id="XMLID_35_" d="M-19.1,13.9c-0.1,0,0,0.1,0,0.2c0.1,0.1,0.1,0.1,0.2,0c0.1,0,0-0.1,0-0.2C-19,13.9-19,13.9-19.1,13.9
		L-19.1,13.9z M-19.1,13.9"/>
	<path id="XMLID_32_" d="M-19.4,13.6c0,0.1,0,0.1,0.1,0.1c0.1,0,0.1,0,0.1,0c0-0.1,0-0.1-0.1-0.1C-19.4,13.6-19.4,13.6-19.4,13.6
		L-19.4,13.6z M-19.4,13.6"/>
	<path id="XMLID_29_" d="M-18.7,14.4c-0.1,0-0.1,0.1,0,0.2c0.1,0.1,0.1,0.1,0.2,0.1c0.1-0.1,0.1-0.1,0-0.2
		C-18.6,14.3-18.6,14.3-18.7,14.4L-18.7,14.4z M-18.7,14.4"/>
	<path id="XMLID_26_" d="M-18.3,14.9c-0.1,0.1-0.1,0.1,0,0.2c0.1,0.1,0.2,0.1,0.2,0c0.1-0.1,0-0.1,0-0.2
		C-18.2,14.8-18.3,14.8-18.3,14.9L-18.3,14.9z M-18.3,14.9"/>
</g>
</svg>
