<?xml version="1.0" encoding="utf-8"?>
<!-- Generator: Adobe Illustrator 19.0.0, SVG Export Plug-In . SVG Version: 6.00 Build 0)  -->
<svg version="1.1" id="Layer_1" xmlns="http://www.w3.org/2000/svg" xmlns:xlink="http://www.w3.org/1999/xlink" x="0px" y="0px"
	 viewBox="0 0 180 55" style="enable-background:new 0 0 180 55;" xml:space="preserve">
<style type="text/css">
	.st0{fill:#33469D;}
	.st1{fill:#282828;}
	.st2{fill:#FFFFFF;}
</style>
<g id="XMLID_37_">
	<g id="XMLID_84_">
		<polygon id="XMLID_35_" class="st0" points="22.4,1.1 14,1.1 3.5,18.8 9.1,36.4 17.4,36.4 11.8,18.8 		"/>
		<polygon id="XMLID_34_" class="st0" points="101.2,1.1 172.5,1.1 178.1,18.8 167.5,36.4 96.2,36.4 106.8,18.8 		"/>
	</g>
	<g id="XMLID_74_">
		<path id="XMLID_81_" class="st1" d="M37.6,7.6c1.5,0,2.8,0.2,3.9,0.7c1.1,0.4,2,1,2.7,1.8c0.7,0.8,1.2,1.7,1.5,2.7
			c0.3,1,0.3,2.2,0.2,3.5c-0.2,1.3-0.5,2.4-1.2,3.5c-0.6,1-1.4,1.9-2.3,2.7c-0.9,0.8-2,1.4-3.2,1.8c-1.3,0.4-2.6,0.7-4.1,0.7h-4.8
			L29.7,30h-7.3l3.1-22.4L37.6,7.6L37.6,7.6z M31.3,18.5h4.8c0.3,0,0.6-0.1,0.9-0.2c0.3-0.1,0.5-0.3,0.8-0.5
			c0.2-0.2,0.4-0.5,0.6-0.7c0.2-0.3,0.3-0.5,0.3-0.8c0-0.3,0-0.6-0.1-0.8c-0.1-0.3-0.2-0.5-0.4-0.7c-0.2-0.2-0.4-0.4-0.6-0.5
			c-0.3-0.1-0.5-0.2-0.8-0.2h-4.8L31.3,18.5z"/>
		<path id="XMLID_78_" class="st1" d="M59.7,30l-2.2-6.1h-3.2L53.5,30h-7.3l3.1-22.4h11.8c1.4,0,2.7,0.2,3.8,0.6
			c1.1,0.4,2,1,2.7,1.7c0.7,0.7,1.2,1.6,1.5,2.6c0.3,1,0.3,2.1,0.2,3.3c-0.2,1.2-0.5,2.2-1,3c-0.5,0.8-1,1.5-1.6,1.9
			c-0.6,0.6-1.3,1-2.1,1.4l3.1,7.8L59.7,30L59.7,30z M55.2,17.7h4.5c0.5,0,0.9-0.2,1.4-0.6c0.4-0.4,0.7-0.8,0.8-1.3
			c0.1-0.5,0-0.9-0.4-1.3c-0.3-0.4-0.8-0.6-1.3-0.6h-4.5L55.2,17.7z"/>
		<path id="XMLID_75_" class="st1" d="M95.9,18.9c-0.2,1.6-0.9,3.2-1.7,4.7c-0.9,1.5-1.9,2.7-3.2,3.9c-1.3,1.1-2.8,2-4.4,2.7
			c-1.7,0.7-3.3,1-5.1,1c-1.8,0-3.3-0.3-4.8-1c-1.4-0.7-2.6-1.6-3.6-2.7c-1-1.1-1.7-2.4-2.2-3.9s-0.6-3-0.4-4.6
			c0.2-1.6,0.8-3.1,1.7-4.6s2-2.7,3.3-3.9s2.8-2,4.4-2.7c1.6-0.7,3.3-1,5.1-1c1.8,0,3.3,0.3,4.8,1c1.5,0.7,2.7,1.6,3.7,2.7
			c1,1.1,1.8,2.4,2.2,3.9C96,15.8,96.1,17.3,95.9,18.9L95.9,18.9z M77.8,18.8c-0.1,0.7-0.1,1.5,0.1,2.2c0.2,0.6,0.5,1.2,0.9,1.7
			c0.4,0.5,0.9,0.9,1.6,1.2c0.6,0.3,1.3,0.4,2,0.4c0.7,0,1.4-0.2,2.1-0.4c0.7-0.3,1.3-0.7,1.9-1.2c0.6-0.5,1-1.1,1.4-1.7
			c0.4-0.6,0.6-1.3,0.7-2.1c0.1-0.7,0-1.4-0.2-2.1c-0.2-0.6-0.5-1.2-0.9-1.7s-0.9-0.9-1.5-1.2c-0.6-0.3-1.3-0.4-2-0.4
			c-0.7,0-1.4,0.2-2.1,0.4c-0.7,0.3-1.3,0.7-1.9,1.2c-0.6,0.5-1,1.1-1.4,1.7C78.1,17.4,77.9,18,77.8,18.8L77.8,18.8z"/>
	</g>
	<g id="XMLID_66_">
		<path id="XMLID_27_" class="st2" d="M142.3,25.7l1-7.5c0.1-0.4,0.1-0.8,0-1.1c-0.1-0.3-0.2-0.6-0.4-0.9c-0.2-0.2-0.4-0.4-0.7-0.6
			c-0.3-0.1-0.5-0.2-0.8-0.2c-0.5,0-0.9,0.1-1.3,0.4c-0.4,0.2-0.7,0.5-1,0.8c-0.3,0.3-0.6,0.7-0.9,1.2l-1.1,7.9h-3.8L136,6.6h3.8
			l-1,7.4h0.3c0.2-0.4,0.5-0.7,0.9-1c0.3-0.2,0.7-0.5,1.2-0.7c0.5-0.2,1-0.3,1.6-0.3c0.7,0,1.4,0.1,2,0.4c0.6,0.3,1.1,0.7,1.5,1.3
			c0.4,0.5,0.7,1.2,0.9,2c0.2,0.8,0.2,1.6,0.1,2.5l-1.1,7.5H142.3z"/>
		<path id="XMLID_70_" class="st2" d="M131.7,16.3c-0.2-0.9-0.6-1.6-1-2.2c-0.5-0.6-1-1.1-1.7-1.5c-0.7-0.4-1.4-0.5-2.2-0.5
			c-0.7,0-1.2,0.1-1.7,0.3c-0.5,0.2-0.9,0.4-1.2,0.7c-0.4,0.3-0.7,0.6-0.9,1h-0.3l0.2-1.4H119l-2.6,18.6h3.8l1-6.8h0.3
			c0.1,0.4,0.4,0.7,0.7,0.9c0.2,0.2,0.6,0.5,1,0.7c0.4,0.2,0.9,0.3,1.6,0.3c0.8,0,1.6-0.2,2.4-0.5c0.8-0.4,1.5-0.8,2.2-1.5
			c0.7-0.6,1.2-1.4,1.7-2.2c0.5-0.9,0.8-1.8,0.9-2.8l0-0.1C132,18.2,132,17.2,131.7,16.3z M128.1,19.3c-0.2,1.2-0.6,2.1-1.3,2.7
			c-0.4,0.3-0.8,0.6-1.2,0.8c-0.3,0.1-0.7,0.2-1,0.2c0,0,0,0-0.1,0c0,0,0,0-0.1,0c-0.4,0-0.7-0.1-0.9-0.2c-0.4-0.2-0.7-0.4-1-0.8
			c-0.5-0.7-0.7-1.6-0.5-2.7c0.2-1.2,0.6-2.1,1.3-2.7c0.4-0.3,0.8-0.6,1.2-0.8c0.3-0.1,0.7-0.2,1-0.2c0,0,0,0,0.1,0c0,0,0,0,0.1,0
			c0.2,0,0.3,0,0.5,0.1l0,0c0.1,0,0.1,0,0.2,0c0.5,0.1,0.9,0.4,1.3,0.9C128.1,17.2,128.2,18.1,128.1,19.3z"/>
		<path id="XMLID_67_" class="st2" d="M163.3,16.3c-0.2-0.9-0.6-1.6-1-2.2c-0.5-0.6-1-1.1-1.7-1.5c-0.7-0.4-1.4-0.5-2.2-0.5
			c-0.7,0-1.2,0.1-1.7,0.3c-0.5,0.2-0.9,0.4-1.2,0.7c-0.4,0.3-0.7,0.6-0.9,1h-0.3l0.2-1.4h-3.8L148,31.3h3.8l1-6.8h0.3
			c0.1,0.4,0.4,0.7,0.7,0.9c0.2,0.2,0.6,0.5,1,0.7c0.4,0.2,0.9,0.3,1.6,0.3c0.8,0,1.6-0.2,2.4-0.5c0.8-0.4,1.5-0.8,2.2-1.5
			c0.7-0.6,1.2-1.4,1.7-2.2c0.5-0.9,0.8-1.8,0.9-2.8l0-0.1C163.6,18.2,163.5,17.2,163.3,16.3z M159.7,19.3c-0.2,1.2-0.6,2.1-1.3,2.7
			c-0.4,0.3-0.8,0.6-1.2,0.8c-0.3,0.1-0.7,0.2-1,0.2c0,0,0,0-0.1,0c0,0,0,0-0.1,0c-0.4,0-0.7-0.1-0.9-0.2c-0.4-0.2-0.7-0.4-1-0.8
			c-0.5-0.7-0.7-1.6-0.5-2.7c0.2-1.2,0.6-2.1,1.3-2.7c0.4-0.3,0.8-0.6,1.2-0.8c0.3-0.1,0.7-0.2,1-0.2c0,0,0,0,0.1,0c0,0,0,0,0.1,0
			c0.2,0,0.3,0,0.5,0.1l0,0c0.1,0,0.1,0,0.2,0c0.5,0.1,0.9,0.4,1.3,0.9C159.7,17.2,159.8,18.1,159.7,19.3z"/>
	</g>
	<g id="XMLID_38_">
		<path id="XMLID_22_" class="st0" d="M46.3,41.8l-1.3,9.4h-1.7l1.3-9.4H46.3z"/>
		<path id="XMLID_21_" class="st0" d="M55,41.8l-0.2,1.4h-3l-1.2,8H49l1.2-8h-3.1l0.2-1.4H55z"/>
		<path id="XMLID_20_" class="st0" d="M66.6,44.4H65c-0.1-1-0.9-1.5-2.1-1.5c-0.9,0-1.9,0.4-1.8,1.4c0,0.6,0.5,1,1.3,1.2
			c0.8,0.2,1.3,0.4,1.8,0.5c1.2,0.4,2,1,2.1,2.4c0.1,2.1-1.6,3-3.7,3c-1.9,0-3.8-0.8-3.9-3.1h1.6l0,0.1c0.1,1.2,1.3,1.6,2.3,1.6
			c1,0,2.1-0.4,2-1.6c-0.1-0.8-0.7-1.1-1.4-1.3c-0.3-0.1-0.8-0.2-1.6-0.5c-1.2-0.4-2-1-2.1-2.3c-0.1-1.9,1.5-2.8,3.4-2.8
			C64.9,41.6,66.5,42.5,66.6,44.4z"/>
		<path id="XMLID_60_" class="st0" d="M73.8,50.1c-0.7,0.9-1.7,1.3-2.9,1.3c-1,0-1.8-0.3-2.4-0.8c-0.6-0.5-0.9-1.3-1-2.3
			c-0.1-1.3,0.2-2.3,0.9-3.2c0.7-0.9,1.7-1.3,2.9-1.3c1,0,1.8,0.3,2.4,0.8c0.6,0.5,0.9,1.3,1,2.2C74.8,48.2,74.5,49.3,73.8,50.1z
			 M72.5,45.5c-0.3-0.3-0.7-0.4-1.3-0.4c-0.7,0-1.3,0.4-1.7,1c-0.4,0.7-0.6,1.4-0.5,2.2c0,0.5,0.2,1,0.5,1.4
			c0.3,0.4,0.7,0.5,1.3,0.5c0.7,0,1.3-0.3,1.7-1s0.6-1.5,0.5-2.3C73.1,46.3,72.9,45.8,72.5,45.5z"/>
		<path id="XMLID_17_" class="st0" d="M78.7,41.3l-1.5,10h-1.6l1.5-10H78.7z"/>
		<path id="XMLID_16_" class="st0" d="M81.8,44l-0.6,4.2c-0.1,0.4-0.1,0.8-0.1,1c0,0.6,0.5,0.9,1.2,0.9c0.6,0,1.1-0.2,1.5-0.7
			c0.4-0.4,0.6-1,0.7-1.8L85,44h1.6l-1,7.2h-1.5l0.1-1.1h0c-0.5,0.8-1.4,1.3-2.5,1.3c-1.4,0-2.2-0.7-2.3-1.9c0-0.3,0-0.8,0.1-1.3
			l0.6-4.3L81.8,44L81.8,44z"/>
		<path id="XMLID_15_" class="st0" d="M91,41.8L90.7,44h1.6l-0.2,1.1h-1.6l-0.6,4c0,0.2,0,0.4,0,0.4c0,0.3,0.2,0.5,0.7,0.5
			c0.2,0,0.7,0,1-0.1l-0.2,1.3c-0.4,0.1-1,0.1-1.2,0.1c-1.2,0-1.8-0.4-1.9-1.3c0-0.1,0-0.3,0.1-0.7l0.6-4.2h-1.5l0.2-1.1h1.5
			l0.3-2.2L91,41.8L91,41.8z"/>
		<path id="XMLID_54_" class="st0" d="M95.3,44l-1,7.2h-1.6l1-7.2H95.3z M95.7,40.9l-0.2,1.6h-1.6l0.2-1.6H95.7z"/>
		<path id="XMLID_51_" class="st0" d="M102.5,50.1c-0.7,0.9-1.7,1.3-2.9,1.3c-1,0-1.8-0.3-2.4-0.8c-0.6-0.5-0.9-1.3-1-2.3
			c-0.1-1.3,0.2-2.3,0.9-3.2c0.7-0.9,1.7-1.3,2.9-1.3c1,0,1.8,0.3,2.4,0.8s0.9,1.3,1,2.2C103.5,48.2,103.2,49.3,102.5,50.1z
			 M101.2,45.5c-0.3-0.3-0.7-0.4-1.3-0.4c-0.7,0-1.3,0.4-1.7,1c-0.4,0.7-0.6,1.4-0.5,2.2c0,0.5,0.2,1,0.5,1.4
			c0.3,0.4,0.7,0.5,1.3,0.5c0.7,0,1.3-0.3,1.7-1c0.4-0.7,0.6-1.5,0.5-2.3C101.8,46.3,101.6,45.8,101.2,45.5z"/>
		<path id="XMLID_10_" class="st0" d="M111.5,45.8c0,0.2,0,0.4-0.1,0.8l-0.7,4.7h-1.6l0.6-4.4c0-0.3,0.1-0.6,0.1-0.8
			c0-0.6-0.6-1-1.2-1c-0.6,0-1,0.2-1.5,0.7c-0.4,0.4-0.6,1-0.7,1.7l-0.5,3.8h-1.6l1-7.2h1.5l-0.2,1.1h0c0.6-0.8,1.4-1.3,2.5-1.3
			C110.6,43.8,111.5,44.5,111.5,45.8z"/>
		<path id="XMLID_9_" class="st0" d="M118.9,46h-1.5c-0.1-0.8-0.7-1-1.5-1c-0.8,0-1.4,0.2-1.3,0.9c0,0.5,0.6,0.8,1.6,1.1
			c1.1,0.3,2.4,0.7,2.5,2.2c0.1,1.7-1.5,2.4-3,2.4c-1.3,0-3-0.5-3.1-2.2l0-0.2h1.5v0.1c0.1,0.8,0.9,1.2,1.6,1.2c0.8,0,1.6-0.3,1.5-1
			c0-0.7-0.5-0.8-1.7-1.2c-1.7-0.5-2.3-1-2.3-2.1c-0.1-1.5,1.4-2.2,2.9-2.2C117.4,43.8,118.8,44.4,118.9,46z"/>
		<path id="XMLID_8_" class="st0" d="M124,51.3l1.3-9.4h6.9l-0.2,1.4h-5.2l-0.4,2.5h4.9l-0.2,1.3h-4.9l-0.4,2.8h5.3l-0.2,1.4
			L124,51.3L124,51.3z"/>
		<path id="XMLID_7_" class="st0" d="M134.8,44l1.2,2.4l1.8-2.4h1.8l-2.8,3.5l2.1,3.8h-1.7l-1.4-2.6l-2.1,2.6h-1.8l3.1-3.9l-1.9-3.4
			L134.8,44L134.8,44z"/>
		<path id="XMLID_44_" class="st0" d="M146.7,44.6c0.5,0.5,0.8,1.2,0.9,2.1c0.1,1.2-0.2,2.4-0.9,3.4c-0.6,0.8-1.6,1.4-2.7,1.4
			c-1,0-1.9-0.4-2.2-1.4h0l-0.5,3.7h-1.6L141,44h1.5l-0.2,1l0,0c0.5-0.9,1.2-1.3,2.3-1.3C145.5,43.8,146.2,44.1,146.7,44.6z
			 M143.7,50.2c0.7,0,1.4-0.4,1.8-1c0.4-0.7,0.6-1.5,0.5-2.3c0-0.6-0.2-1-0.5-1.3c-0.3-0.3-0.7-0.5-1.2-0.5c-0.7,0-1.3,0.3-1.8,1.1
			c-0.4,0.7-0.6,1.5-0.5,2.4C142,49.6,142.6,50.2,143.7,50.2z"/>
		<path id="XMLID_41_" class="st0" d="M155.3,49.3c-0.7,1.7-2.1,2.2-3.4,2.2c-1.8,0-3.1-1.2-3.2-3.1c-0.1-1.2,0.2-2.3,0.9-3.2
			c0.7-0.9,1.7-1.3,2.8-1.3c1,0,1.7,0.3,2.3,0.8c0.6,0.5,0.9,1.3,1,2.2c0,0.4,0,0.8,0,1.2h-5.5c0,0.1,0,0.3,0,0.4
			c0.1,1,0.7,1.7,1.7,1.7c0.8,0,1.4-0.3,1.8-0.9H155.3z M154.1,47c0-0.1,0-0.2,0-0.2c0-0.5-0.2-0.9-0.5-1.2
			c-0.3-0.3-0.7-0.4-1.2-0.4c-0.6,0-1,0.2-1.4,0.5c-0.3,0.3-0.6,0.8-0.7,1.4L154.1,47L154.1,47z"/>
		<path id="XMLID_2_" class="st0" d="M162,43.9l-0.2,1.6c-0.3-0.1-0.5-0.1-0.8-0.1c-1.4,0-2.1,0.8-2.3,2.5l-0.5,3.4h-1.6l1-7.2h1.5
			l-0.2,1.5h0c0.5-1,1.3-1.6,2.5-1.6C161.6,43.9,161.8,43.9,162,43.9z"/>
		<path id="XMLID_1_" class="st0" d="M166,41.8l-0.3,2.2h1.6l-0.2,1.1h-1.6l-0.6,4c0,0.2,0,0.4,0,0.4c0,0.3,0.2,0.5,0.7,0.5
			c0.2,0,0.7,0,1-0.1l-0.2,1.3c-0.4,0.1-1,0.1-1.2,0.1c-1.2,0-1.8-0.4-1.9-1.3c0-0.1,0-0.3,0.1-0.7l0.6-4.2h-1.5l0.2-1.1h1.5
			l0.3-2.2L166,41.8L166,41.8z"/>
	</g>
</g>
</svg>
