<?xml version="1.0" encoding="utf-8"?>
<!-- Generator: Adobe Illustrator 19.0.0, SVG Export Plug-In . SVG Version: 6.00 Build 0)  -->
<svg version="1.1" id="Layer_1" xmlns="http://www.w3.org/2000/svg" xmlns:xlink="http://www.w3.org/1999/xlink" x="0px" y="0px"
	 viewBox="0 0 40 40" style="enable-background:new 0 0 40 40;" xml:space="preserve">
<style type="text/css">
	.st0{fill:#FFFFFF;}
</style>
<g>
	<path class="st0" d="M38.8,14.2c-5.2-5-12-7.7-19.1-7.7l0,0l0,0c-7.2,0-14,2.8-19.1,7.7c-0.5,0.5-0.5,1.2,0,1.7
		c0.2,0.2,0.6,0.4,0.9,0.4s0.6-0.1,0.8-0.3C7,11.4,13.2,8.9,19.7,8.9s12.7,2.5,17.4,7.1c0.5,0.5,1.3,0.5,1.7,0
		C39.3,15.5,39.3,14.7,38.8,14.2z"/>
	<path class="st0" d="M19.5,21.4c-1.7,0-3.1,1.4-3.1,3.1c0,1.7,1.4,3.1,3.1,3.1s3.1-1.4,3.1-3.1C20.9,24.5,19.5,23.1,19.5,21.4z"/>
	<path class="st0" d="M19.7,15.3c-8.5,0-14.8,5.8-17.1,8.2c-0.4,0.5-0.4,1.2,0,1.7c2.3,2.5,8.7,8.2,17.1,8.2
		c8.5,0,14.8-5.8,17.1-8.2c0.4-0.5,0.4-1.2,0-1.7C34.5,21.1,28.1,15.3,19.7,15.3z M11.7,29.1c-2.9-1.4-5.1-3.3-6.5-4.7
		c1.5-1.4,3.8-3.3,6.7-4.8c-0.8,1.4-1.3,3.1-1.3,4.9C10.6,26.1,10.9,27.7,11.7,29.1z M22.3,30.8c-0.8,0.1-1.7,0.2-2.6,0.2
		c-1.1,0-2.1-0.1-3.1-0.3c-2.2-1.2-3.5-3.6-3.5-6.2c0-3,1.8-5.7,4.4-6.6c0.7-0.1,1.5-0.2,2.2-0.2c0.6,0,1.1,0,1.7,0.1
		c2.7,0.9,4.6,3.6,4.6,6.7C26,27.2,24.5,29.7,22.3,30.8z M27.2,29.3c0.8-1.4,1.2-3.1,1.2-4.8c0-1.8-0.5-3.6-1.4-5.1
		c3.2,1.4,5.7,3.5,7.2,5C32.7,25.8,30.3,27.9,27.2,29.3z"/>
</g>
</svg>
