<?xml version="1.0" encoding="utf-8"?>
<!-- Generator: Adobe Illustrator 19.0.0, SVG Export Plug-In . SVG Version: 6.00 Build 0)  -->
<svg version="1.1" id="Layer_1" xmlns="http://www.w3.org/2000/svg" xmlns:xlink="http://www.w3.org/1999/xlink" x="0px" y="0px"
	 viewBox="0 0 40 40" style="enable-background:new 0 0 40 40;" xml:space="preserve">
<style type="text/css">
	.st0{fill:#FFFFFF;}
</style>
<g id="XMLID_2_">
	<path id="XMLID_3_" class="st0" d="M20,0C9,0,0,9,0,20s9,20,20,20s20-9,20-20S31,0,20,0z M20,37.7c-9.8,0-17.7-7.9-17.7-17.7
		S10.2,2.3,20,2.3c9.8,0,17.7,7.9,17.7,17.7C37.7,29.8,29.8,37.7,20,37.7z M27.9,18.9h-6.7v-6.7c0-0.6-0.5-1.1-1.1-1.1
		S19,11.6,19,12.2v6.7h-6.7c-0.6,0-1.1,0.5-1.1,1.1s0.5,1.1,1.1,1.1H19v6.7c0,0.6,0.5,1.1,1.1,1.1s1.1-0.5,1.1-1.1v-6.7h6.7
		c0.6,0,1.1-0.5,1.1-1.1S28.5,18.9,27.9,18.9z"/>
</g>
</svg>
